<?xml version="1.0" standalone="no"?>
<!DOCTYPE svg PUBLIC "-//W3C//DTD SVG 20010904//EN"
 "http://www.w3.org/TR/2001/REC-SVG-20010904/DTD/svg10.dtd">
<svg version="1.0" xmlns="http://www.w3.org/2000/svg"
 width="6912.000000pt" height="3456.000000pt" viewBox="0 0 6912.000000 3456.000000"
 preserveAspectRatio="xMidYMid meet">
<metadata>
Created by potrace 1.16, written by Peter Selinger 2001-2019
</metadata>
<g transform="translate(0.000000,3456.000000) scale(0.100000,-0.100000)"
fill="#000000" stroke="none">
<path d="M57380 34481 c-1404 -468 -2592 -1133 -3665 -2050 -366 -313 -816
-765 -1147 -1151 -1580 -1846 -2645 -4335 -3133 -7320 -132 -814 -226 -1718
-255 -2465 -12 -317 -32 -578 -60 -800 -195 -1539 -823 -2975 -1830 -4185
-237 -285 -606 -663 -890 -913 -272 -239 -609 -497 -920 -704 -320 -212 -545
-340 -1085 -613 -467 -236 -676 -350 -995 -543 -1453 -877 -2726 -2040 -3822
-3493 -894 -1185 -1682 -2635 -2233 -4110 -714 -1910 -1102 -3873 -1181 -5966
l-6 -168 16481 0 16481 0 0 17280 0 17280 -5752 0 -5753 -1 -235 -78z"/>
</g>
</svg>
